<?xml version="1.0" standalone="no"?>
<!DOCTYPE svg PUBLIC "-//W3C//DTD SVG 20010904//EN"
 "http://www.w3.org/TR/2001/REC-SVG-20010904/DTD/svg10.dtd">
<svg version="1.0" xmlns="http://www.w3.org/2000/svg"
 width="700.000000pt" height="700.000000pt" viewBox="0 0 700.000000 700.000000"
 preserveAspectRatio="xMidYMid meet">
<metadata>
Created by potrace 1.11, written by Peter Selinger 2001-2013
</metadata>
<g transform="translate(0.000000,700.000000) scale(0.100000,-0.100000)"
fill="#000000" stroke="none">
<path d="M1745 5899 c-206 -30 -383 -87 -417 -134 -38 -51 -110 -287 -123
-401 -4 -33 -9 -62 -11 -66 -6 -9 -5 -327 0 -358 3 -14 8 -47 11 -75 9 -71 11
-86 19 -120 3 -16 8 -39 10 -50 37 -188 159 -514 263 -698 18 -33 33 -63 33
-68 0 -5 5 -9 10 -9 6 0 10 -5 10 -11 0 -31 248 -403 345 -518 130 -154 271
-242 361 -228 113 19 200 180 234 432 19 144 21 159 50 290 30 137 76 294 91
309 10 11 68 -32 129 -95 54 -57 101 -133 143 -231 28 -67 31 -83 31 -188 1
-63 -2 -135 -6 -160 -7 -44 -33 -180 -44 -230 -3 -14 -7 -36 -10 -50 -3 -14
-12 -59 -20 -100 -21 -103 -21 -100 -28 -145 -7 -45 -13 -90 -21 -150 -7 -52
-6 -218 0 -275 11 -87 42 -184 82 -256 25 -45 60 -81 69 -71 4 3 8 37 11 74 5
82 44 347 59 395 3 9 7 26 9 37 10 54 59 220 85 292 54 146 126 278 193 356
58 66 147 -14 199 -178 23 -73 23 -81 23 -519 1 -245 4 -458 8 -475 4 -16 12
-52 18 -80 19 -83 74 -191 120 -235 23 -22 46 -40 51 -40 4 0 8 26 9 58 1 31
2 75 4 97 2 22 6 78 10 125 3 47 8 94 10 105 2 11 6 38 9 60 10 80 16 112 51
276 10 47 61 178 85 220 31 52 79 109 91 109 16 0 286 -276 337 -345 59 -80
91 -154 87 -205 -2 -32 -17 -158 -20 -170 -3 -11 -18 -117 -20 -140 -1 -14 -6
-50 -10 -80 -4 -30 -8 -125 -10 -210 -2 -159 14 -290 49 -410 9 -30 17 -59 17
-65 5 -33 125 -265 148 -285 4 -3 18 -21 33 -41 64 -86 242 -249 272 -249 22
0 72 57 104 119 65 121 161 449 221 751 37 188 38 193 53 305 17 129 19 131
158 161 14 3 35 7 46 9 68 15 390 111 509 153 286 100 442 181 477 245 7 14 1
28 -28 65 -209 261 -525 397 -914 394 -105 -1 -233 -8 -295 -17 -96 -14 -225
-37 -290 -50 -171 -36 -277 -52 -310 -48 -47 6 -109 42 -193 109 -92 74 -292
278 -292 297 0 17 42 55 94 85 150 88 511 158 858 166 28 1 48 6 48 12 0 17
-83 90 -128 113 -54 27 -170 58 -262 70 -41 5 -187 7 -325 4 -312 -6 -463 -6
-495 0 -153 30 -261 91 -275 158 -6 27 -3 35 21 55 131 108 318 191 575 254
68 17 135 32 149 35 118 21 228 36 295 41 44 3 84 9 88 14 14 13 -64 69 -133
95 -116 45 -181 54 -339 50 -80 -2 -159 -6 -176 -9 -37 -7 -91 -17 -130 -23
-16 -2 -103 -20 -192 -39 -182 -39 -344 -64 -417 -64 -105 0 -285 75 -370 154
-43 40 -83 93 -75 100 34 31 289 125 405 151 10 2 73 15 139 29 66 14 143 33
170 41 212 66 282 176 202 317 -59 105 -103 148 -342 336 -91 72 -377 240
-538 317 -211 101 -483 192 -628 210 -30 4 -56 8 -59 10 -15 9 -143 18 -275
20 -101 1 -189 -4 -270 -16z"/>
</g>
</svg>
